<svg xmlns="http://www.w3.org/2000/svg" xmlns:xlink="http://www.w3.org/1999/xlink" version="1.1" width="256" height="256" viewBox="0 0 256 256" xml:space="preserve">

<defs>
</defs>
<g style="stroke: none; stroke-width: 0; stroke-dasharray: none; stroke-linecap: butt; stroke-linejoin: miter; stroke-miterlimit: 10; fill: none; fill-rule: nonzero; opacity: 1;" transform="translate(1.4065934065934016 1.4065934065934016) scale(2.81 2.81)" >
	<path d="M 25.199 90 l -0.624 -5.573 c -0.506 -4.574 -0.88 -11.003 0.205 -15.663 c 0.902 -3.873 5.535 -23.47 6.187 -26.228 c -0.419 -0.968 -1.547 -3.952 -1.547 -8.029 c 0 -7.816 4.67 -13.939 10.632 -13.939 c 4.694 0 7.726 3.333 7.726 8.491 c 0 3.071 -1.206 6.977 -2.483 11.112 c -0.702 2.275 -1.429 4.628 -1.967 6.894 c -0.507 2.142 -0.088 4.203 1.178 5.805 c 1.334 1.687 3.445 2.655 5.789 2.655 c 9.168 0 15.821 -9.879 15.821 -23.489 c 0 -12.223 -8.776 -20.76 -21.341 -20.76 c -15.035 0 -23.148 11.443 -23.148 22.21 c 0 4.134 1.544 8.892 3.754 11.572 c 0.6 0.728 0.78 1.483 0.565 2.375 c -0.228 0.948 -0.613 2.51 -0.937 3.829 c -0.252 1.025 -0.468 1.902 -0.545 2.226 c -0.18 0.755 -0.541 1.269 -1.073 1.526 c -0.843 0.409 -1.761 -0.018 -2.063 -0.159 c -7.136 -3.321 -11.4 -13.575 -11.4 -21.568 C 9.925 17.255 21.271 0 46.182 0 c 19.322 0 33.893 13.677 33.893 31.814 c 0 19.49 -12.331 34.188 -28.682 34.188 c -4.653 0 -9.263 -1.952 -11.833 -4.842 c -0.815 3.102 -2.331 8.882 -2.798 10.681 c -1.293 4.972 -6.812 14.189 -10.181 17.004 L 25.199 90 z M 40.051 22.505 c -4.876 0 -8.696 5.272 -8.696 12.003 c 0 4.45 1.481 7.466 1.496 7.496 l 0.157 0.314 l -0.081 0.341 c 0 0 -5.292 22.377 -6.262 26.544 c -1.023 4.394 -0.655 10.587 -0.166 15.01 l 0.2 1.779 c 3.079 -3.526 7.154 -10.662 8.189 -14.64 c 0.649 -2.5 3.328 -12.698 3.328 -12.698 l 0.634 -2.415 l 1.16 2.211 c 1.678 3.201 6.572 5.614 11.383 5.614 c 15.248 0 26.746 -13.865 26.746 -32.252 c 0 -17.033 -13.738 -29.878 -31.957 -29.878 c -23.581 0 -34.32 16.252 -34.32 31.351 c 0 7.387 3.846 16.817 10.282 19.812 c 0.18 0.084 0.301 0.122 0.375 0.138 c 0.017 -0.044 0.039 -0.108 0.06 -0.198 c 0.078 -0.327 0.295 -1.209 0.549 -2.239 c 0.324 -1.316 0.707 -2.874 0.935 -3.82 c 0.06 -0.25 0.063 -0.4 -0.176 -0.689 c -2.471 -2.996 -4.196 -8.261 -4.196 -12.804 c 0 -11.705 8.792 -24.146 25.084 -24.146 c 13.705 0 23.276 9.333 23.276 22.696 c 0 14.732 -7.468 25.425 -17.757 25.425 c -2.94 0 -5.603 -1.236 -7.308 -3.39 c -1.641 -2.075 -2.189 -4.722 -1.543 -7.452 c 0.553 -2.329 1.289 -4.713 2.001 -7.019 c 1.232 -3.992 2.397 -7.762 2.397 -10.54 C 45.841 25.892 44.32 22.505 40.051 22.505 z M 22.476 53.322 L 22.476 53.322 L 22.476 53.322 z" style="stroke: none; stroke-width: 1; stroke-dasharray: none; stroke-linecap: butt; stroke-linejoin: miter; stroke-miterlimit: 10; fill: rgb(0,0,0); fill-rule: nonzero; opacity: 1;" transform=" matrix(1 0 0 1 0 0) " stroke-linecap="round" />
</g>
</svg>