<svg xmlns="http://www.w3.org/2000/svg" xmlns:xlink="http://www.w3.org/1999/xlink" version="1.1" width="256" height="256" viewBox="0 0 256 256" xml:space="preserve">

<defs>
</defs>
<g style="stroke: none; stroke-width: 0; stroke-dasharray: none; stroke-linecap: butt; stroke-linejoin: miter; stroke-miterlimit: 10; fill: none; fill-rule: nonzero; opacity: 1;" transform="translate(1.4065934065934016 1.4065934065934016) scale(2.81 2.81)" >
	<path d="M 1.196 90 c -0.264 0 -0.521 -0.104 -0.711 -0.297 c -0.251 -0.254 -0.348 -0.623 -0.253 -0.968 l 6.079 -22.194 c -3.759 -6.658 -5.746 -14.222 -5.749 -21.905 c 0 -0.011 0 -0.021 0 -0.032 C 0.572 20.009 20.59 0 45.184 0 c 11.929 0.005 23.138 4.651 31.563 13.082 c 8.425 8.431 13.062 19.639 13.058 31.558 c -0.003 7.471 -1.898 14.868 -5.481 21.392 c -0.268 0.483 -0.876 0.659 -1.358 0.396 c -0.484 -0.267 -0.661 -0.874 -0.396 -1.358 c 3.423 -6.229 5.232 -13.294 5.235 -20.43 c 0.004 -11.385 -4.426 -22.09 -12.472 -30.143 C 67.284 6.442 56.577 2.005 45.183 2 C 21.702 2 2.588 21.096 2.562 44.575 c 0 0.01 0 0.021 0 0.031 C 2.56 52.09 4.527 59.455 8.251 65.905 c 0.133 0.231 0.169 0.507 0.098 0.765 L 2.619 87.594 l 21.448 -5.625 c 0.246 -0.063 0.509 -0.032 0.732 0.09 c 6.217 3.391 13.259 5.184 20.366 5.187 c 9.438 0 18.374 -3.026 25.859 -8.752 c 0.438 -0.335 1.067 -0.253 1.401 0.187 c 0.336 0.438 0.252 1.066 -0.187 1.401 c -7.837 5.995 -17.192 9.164 -27.056 9.164 c -7.325 -0.003 -14.568 -1.814 -20.991 -5.241 L 1.45 89.968 C 1.366 89.989 1.281 90 1.196 90 z" style="stroke: none; stroke-width: 1; stroke-dasharray: none; stroke-linecap: butt; stroke-linejoin: miter; stroke-miterlimit: 10; fill: rgb(0,0,0); fill-rule: nonzero; opacity: 1;" transform=" matrix(1 0 0 1 0 0) " stroke-linecap="round" />
	<path d="M 56.924 66.552 c -1.928 0 -4.92 -0.502 -11.204 -2.979 c -6.786 -2.677 -13.479 -8.529 -18.845 -16.48 c -0.101 -0.149 -0.169 -0.253 -0.206 -0.301 c -1.409 -1.885 -4.65 -6.772 -4.65 -11.873 c 0 -5.415 2.714 -8.309 3.873 -9.545 l 0.205 -0.22 c 1.395 -1.523 3.013 -1.688 3.644 -1.688 h 0.107 c 0.705 0 1.407 0 2.024 0.026 c 1.089 0.044 2.334 0.276 3.323 2.472 c 0.005 0.012 0.01 0.024 0.015 0.036 c 0.566 1.263 1.493 3.546 2.239 5.384 c 0.486 1.198 0.989 2.437 1.087 2.633 c 0.185 0.37 0.746 1.493 0.091 2.804 l -0.15 0.304 c -0.284 0.579 -0.528 1.079 -1.073 1.716 c -0.179 0.209 -0.363 0.433 -0.547 0.657 c -0.384 0.467 -0.782 0.951 -1.143 1.311 c -0.558 0.555 -0.551 0.617 -0.321 1.012 c 0.758 1.299 2.846 4.612 5.866 7.305 c 3.36 2.995 6.23 4.241 7.772 4.911 c 0.322 0.14 0.584 0.254 0.775 0.351 c 0.782 0.392 0.893 0.266 1.159 -0.037 c 0.665 -0.76 2.697 -3.156 3.372 -4.169 c 1.209 -1.812 2.722 -1.26 3.627 -0.931 c 1.12 0.407 6.786 3.207 7.554 3.591 l 0.576 0.282 c 0.899 0.434 1.549 0.746 1.923 1.369 c 0.563 0.942 0.319 3.591 -0.553 6.032 c -1.085 3.042 -6.041 5.644 -8.207 5.841 c -0.184 0.017 -0.366 0.038 -0.554 0.061 C 58.179 66.486 57.621 66.552 56.924 66.552 z M 29.978 25.465 c -0.043 0 -0.086 0 -0.13 0 H 29.74 c -0.286 0 -1.286 0.075 -2.168 1.039 l -0.221 0.237 c -1.081 1.153 -3.332 3.553 -3.332 8.177 c 0 4.501 2.963 8.951 4.237 10.655 c 0.059 0.079 0.148 0.209 0.277 0.4 c 5.143 7.619 11.507 13.208 17.921 15.737 c 8.089 3.19 10.268 2.932 12.015 2.728 c 0.206 -0.024 0.405 -0.048 0.606 -0.066 c 1.622 -0.147 5.742 -2.381 6.506 -4.521 c 0.843 -2.364 0.776 -4.122 0.683 -4.408 c -0.06 -0.048 -0.603 -0.31 -1.038 -0.52 l -0.603 -0.295 c -1.411 -0.706 -6.455 -3.178 -7.343 -3.501 c -0.94 -0.341 -0.981 -0.286 -1.279 0.161 c -0.795 1.192 -2.986 3.755 -3.529 4.375 c -1.249 1.431 -2.631 0.976 -3.563 0.51 c -0.167 -0.084 -0.395 -0.183 -0.676 -0.305 c -1.527 -0.663 -4.707 -2.043 -8.306 -5.253 c -3.234 -2.883 -5.457 -6.408 -6.262 -7.79 c -1.034 -1.774 0.095 -2.896 0.637 -3.436 c 0.29 -0.29 0.656 -0.734 1.009 -1.164 c 0.193 -0.234 0.386 -0.469 0.572 -0.687 c 0.379 -0.443 0.536 -0.764 0.796 -1.295 l 0.157 -0.318 c 0.154 -0.308 0.13 -0.574 -0.09 -1.016 c -0.127 -0.254 -0.482 -1.126 -1.152 -2.775 c -0.747 -1.84 -1.677 -4.13 -2.226 -5.352 c -0.005 -0.011 -0.009 -0.021 -0.014 -0.032 c -0.556 -1.22 -0.938 -1.236 -1.567 -1.262 C 31.233 25.466 30.609 25.465 29.978 25.465 z" style="stroke: none; stroke-width: 1; stroke-dasharray: none; stroke-linecap: butt; stroke-linejoin: miter; stroke-miterlimit: 10; fill: rgb(0,0,0); fill-rule: nonzero; opacity: 1;" transform=" matrix(1 0 0 1 0 0) " stroke-linecap="round" />
</g>
</svg>