<svg xmlns="http://www.w3.org/2000/svg" xmlns:xlink="http://www.w3.org/1999/xlink" version="1.1" width="256" height="256" viewBox="0 0 256 256" xml:space="preserve">

<defs>
</defs>
<g style="stroke: none; stroke-width: 0; stroke-dasharray: none; stroke-linecap: butt; stroke-linejoin: miter; stroke-miterlimit: 10; fill: none; fill-rule: nonzero; opacity: 1;" transform="translate(1.4065934065934016 1.4065934065934016) scale(2.81 2.81)" >
	<path d="M 45 77.1 c -1.109 0 -27.235 -0.021 -34.117 -1.865 c -4.389 -1.173 -7.845 -4.629 -9.018 -9.019 C 0.021 59.336 0 45.582 0 45 s 0.021 -14.335 1.866 -21.217 c 1.173 -4.389 4.629 -7.845 9.019 -9.018 C 17.765 12.921 43.891 12.9 45 12.9 c 1.108 0 27.236 0.021 34.117 1.866 c 4.39 1.173 7.845 4.629 9.018 9.019 C 89.979 30.667 90 44.418 90 45 s -0.021 14.336 -1.866 21.217 c -1.172 4.388 -4.627 7.844 -9.018 9.018 C 72.236 77.078 46.108 77.1 45 77.1 z M 45 16.9 c -9.211 0 -27.979 0.362 -33.082 1.729 c -3.013 0.806 -5.384 3.177 -6.189 6.188 C 4.021 31.191 4 44.863 4 45 s 0.021 13.809 1.729 20.182 c 0.806 3.013 3.177 5.384 6.188 6.188 C 18.296 73.08 44.734 73.1 45 73.1 c 9.211 0 27.979 -0.361 33.082 -1.729 c 3.013 -0.806 5.384 -3.177 6.188 -6.188 C 85.98 58.804 86 45.137 86 45 s -0.021 -13.809 -1.729 -20.181 l -0.001 -0.002 c -0.804 -3.011 -3.175 -5.382 -6.187 -6.188 C 71.704 16.919 45.266 16.9 45 16.9 z" style="stroke: none; stroke-width: 1; stroke-dasharray: none; stroke-linecap: butt; stroke-linejoin: miter; stroke-miterlimit: 10; fill: rgb(0,0,0); fill-rule: nonzero; opacity: 1;" transform=" matrix(1 0 0 1 0 0) " stroke-linecap="round" />
	<path d="M 36.4 59.9 c -0.345 0 -0.69 -0.089 -1 -0.268 c -0.619 -0.357 -1 -1.018 -1 -1.732 V 32.1 c 0 -0.714 0.381 -1.375 1 -1.732 c 0.619 -0.357 1.381 -0.357 2 0 l 22.341 12.9 c 0.619 0.357 1 1.018 1 1.732 s -0.381 1.375 -1 1.732 L 37.4 59.633 C 37.091 59.812 36.745 59.9 36.4 59.9 z M 38.4 35.564 v 18.872 L 54.741 45 L 38.4 35.564 z" style="stroke: none; stroke-width: 1; stroke-dasharray: none; stroke-linecap: butt; stroke-linejoin: miter; stroke-miterlimit: 10; fill: rgb(0,0,0); fill-rule: nonzero; opacity: 1;" transform=" matrix(1 0 0 1 0 0) " stroke-linecap="round" />
</g>
</svg>